<mxfile host="app.diagrams.net" modified="2024-03-09T11:29:13.194Z" agent="Mozilla/5.0 (Windows NT 10.0; Win64; x64) AppleWebKit/537.36 (KHTML, like Gecko) Chrome/122.0.0.0 Safari/537.36" etag="CCxdrm8364BkrZllKtJZ" version="24.0.1" type="github">
  <diagram name="Page-1" id="38b20595-45e3-9b7f-d5ca-b57f44c5b66d">
    <mxGraphModel dx="978" dy="520" grid="1" gridSize="10" guides="1" tooltips="1" connect="1" arrows="1" fold="1" page="1" pageScale="1" pageWidth="1100" pageHeight="850" background="none" math="0" shadow="0">
      <root>
        <mxCell id="0" />
        <mxCell id="1" parent="0" />
        <mxCell id="iKcOjGURn-XvWpvlMPrP-16" value="" style="shape=ext;double=1;rounded=0;whiteSpace=wrap;html=1;" vertex="1" parent="1">
          <mxGeometry x="180" y="170" width="710" height="460" as="geometry" />
        </mxCell>
        <mxCell id="iKcOjGURn-XvWpvlMPrP-17" value="" style="endArrow=none;html=1;rounded=0;entryX=0.5;entryY=0;entryDx=0;entryDy=0;exitX=0.5;exitY=1;exitDx=0;exitDy=0;" edge="1" parent="1" source="iKcOjGURn-XvWpvlMPrP-16" target="iKcOjGURn-XvWpvlMPrP-16">
          <mxGeometry width="50" height="50" relative="1" as="geometry">
            <mxPoint x="620" y="460" as="sourcePoint" />
            <mxPoint x="670" y="410" as="targetPoint" />
          </mxGeometry>
        </mxCell>
        <mxCell id="iKcOjGURn-XvWpvlMPrP-18" value="" style="endArrow=none;html=1;rounded=0;entryX=0;entryY=0.5;entryDx=0;entryDy=0;elbow=vertical;exitX=1;exitY=0.5;exitDx=0;exitDy=0;" edge="1" parent="1" source="iKcOjGURn-XvWpvlMPrP-16" target="iKcOjGURn-XvWpvlMPrP-16">
          <mxGeometry width="50" height="50" relative="1" as="geometry">
            <mxPoint x="900" y="460" as="sourcePoint" />
            <mxPoint x="670" y="410" as="targetPoint" />
            <Array as="points" />
          </mxGeometry>
        </mxCell>
        <mxCell id="iKcOjGURn-XvWpvlMPrP-19" value="&lt;font style=&quot;font-size: 30px;&quot;&gt;Chuồng 1: Heo trưởng thành&lt;/font&gt;" style="text;html=1;align=center;verticalAlign=middle;whiteSpace=wrap;rounded=0;" vertex="1" parent="1">
          <mxGeometry x="250" y="200" width="220" height="180" as="geometry" />
        </mxCell>
        <mxCell id="iKcOjGURn-XvWpvlMPrP-20" value="&lt;font style=&quot;font-size: 30px;&quot;&gt;Chuồng 2: Heo mới sinh&lt;/font&gt;" style="text;html=1;align=center;verticalAlign=middle;whiteSpace=wrap;rounded=0;" vertex="1" parent="1">
          <mxGeometry x="600" y="200" width="220" height="180" as="geometry" />
        </mxCell>
        <mxCell id="iKcOjGURn-XvWpvlMPrP-21" value="&lt;font style=&quot;font-size: 30px;&quot;&gt;Chuồng 3: Heo mẹ&lt;/font&gt;" style="text;html=1;align=center;verticalAlign=middle;whiteSpace=wrap;rounded=0;" vertex="1" parent="1">
          <mxGeometry x="250" y="425" width="220" height="180" as="geometry" />
        </mxCell>
        <mxCell id="iKcOjGURn-XvWpvlMPrP-22" value="&lt;font style=&quot;font-size: 30px;&quot;&gt;Chuồng 1: Heo trưởng thành&lt;/font&gt;" style="text;html=1;align=center;verticalAlign=middle;whiteSpace=wrap;rounded=0;" vertex="1" parent="1">
          <mxGeometry x="600" y="425" width="220" height="180" as="geometry" />
        </mxCell>
      </root>
    </mxGraphModel>
  </diagram>
</mxfile>
